<mxfile host="65bd71144e">
    <diagram id="6y-PMtRsZMNDdbMbtsYX" name="Page-1">
        <mxGraphModel dx="1056" dy="643" grid="1" gridSize="9" guides="1" tooltips="1" connect="1" arrows="1" fold="1" page="1" pageScale="1" pageWidth="1169" pageHeight="1654" math="0" shadow="0">
            <root>
                <mxCell id="0"/>
                <mxCell id="1" parent="0"/>
                <mxCell id="73" style="edgeStyle=none;html=1;entryX=0;entryY=0.5;entryDx=0;entryDy=0;fontSize=8;strokeWidth=1;" edge="1" parent="1" source="5" target="14">
                    <mxGeometry relative="1" as="geometry"/>
                </mxCell>
                <mxCell id="102" style="edgeStyle=none;html=1;entryX=0;entryY=0.5;entryDx=0;entryDy=0;fontSize=8;strokeWidth=1;" edge="1" parent="1" source="5" target="15">
                    <mxGeometry relative="1" as="geometry">
                        <Array as="points">
                            <mxPoint x="442" y="432"/>
                            <mxPoint x="442" y="462"/>
                        </Array>
                    </mxGeometry>
                </mxCell>
                <mxCell id="5" value="&lt;span style=&quot;font-size: 8px;&quot;&gt;Talk To Theodore at Bar&lt;/span&gt;" style="rounded=0;whiteSpace=wrap;html=1;fontSize=8;strokeWidth=1;" vertex="1" parent="1">
                    <mxGeometry x="362" y="412" width="60" height="40" as="geometry"/>
                </mxCell>
                <mxCell id="98" style="edgeStyle=none;html=1;entryX=0.5;entryY=0;entryDx=0;entryDy=0;fontSize=8;exitX=0.662;exitY=1.043;exitDx=0;exitDy=0;exitPerimeter=0;strokeWidth=1;" edge="1" parent="1" source="11" target="97">
                    <mxGeometry relative="1" as="geometry">
                        <Array as="points">
                            <mxPoint x="372" y="562"/>
                            <mxPoint x="412" y="562"/>
                        </Array>
                    </mxGeometry>
                </mxCell>
                <mxCell id="99" style="edgeStyle=none;html=1;entryX=0.5;entryY=0;entryDx=0;entryDy=0;fontSize=8;exitX=0.342;exitY=0.997;exitDx=0;exitDy=0;exitPerimeter=0;strokeWidth=1;" edge="1" parent="1" source="11" target="96">
                    <mxGeometry relative="1" as="geometry">
                        <Array as="points">
                            <mxPoint x="332" y="562"/>
                            <mxPoint x="292" y="562"/>
                        </Array>
                    </mxGeometry>
                </mxCell>
                <mxCell id="11" value="&lt;font style=&quot;font-size: 8px;&quot;&gt;Go To Your Room&lt;/font&gt;" style="rounded=0;whiteSpace=wrap;html=1;fontSize=8;strokeWidth=1;" vertex="1" parent="1">
                    <mxGeometry x="292" y="532" width="120" height="20" as="geometry"/>
                </mxCell>
                <mxCell id="19" value="" style="edgeStyle=none;html=1;fontSize=8;strokeWidth=1;" edge="1" parent="1" target="16">
                    <mxGeometry relative="1" as="geometry">
                        <mxPoint x="582" y="432" as="sourcePoint"/>
                        <Array as="points">
                            <mxPoint x="592" y="432"/>
                            <mxPoint x="592" y="402"/>
                        </Array>
                    </mxGeometry>
                </mxCell>
                <mxCell id="83" style="edgeStyle=none;html=1;entryX=0;entryY=0.5;entryDx=0;entryDy=0;fontSize=8;strokeWidth=1;" edge="1" parent="1" source="14" target="17">
                    <mxGeometry relative="1" as="geometry"/>
                </mxCell>
                <mxCell id="14" value="&lt;font style=&quot;font-size: 8px;&quot;&gt;Talk With Karna&lt;/font&gt;" style="rounded=0;whiteSpace=wrap;html=1;fillColor=#dae8fc;strokeColor=#6c8ebf;fontSize=8;strokeWidth=1;" vertex="1" parent="1">
                    <mxGeometry x="462" y="422" width="120" height="20" as="geometry"/>
                </mxCell>
                <mxCell id="103" value="" style="edgeStyle=none;html=1;fontSize=8;strokeWidth=1;" edge="1" parent="1" source="15" target="85">
                    <mxGeometry relative="1" as="geometry"/>
                </mxCell>
                <mxCell id="15" value="&lt;font style=&quot;font-size: 8px;&quot;&gt;Talk With The Bartender&lt;/font&gt;" style="rounded=0;whiteSpace=wrap;html=1;fontSize=8;strokeWidth=1;" vertex="1" parent="1">
                    <mxGeometry x="462" y="452" width="120" height="20" as="geometry"/>
                </mxCell>
                <mxCell id="16" value="&lt;span style=&quot;font-size: 8px;&quot;&gt;Ignore Him&lt;/span&gt;" style="rounded=0;whiteSpace=wrap;html=1;fontSize=8;strokeWidth=1;" vertex="1" parent="1">
                    <mxGeometry x="622" y="392" width="120" height="20" as="geometry"/>
                </mxCell>
                <mxCell id="82" value="" style="edgeStyle=none;html=1;fontSize=8;strokeWidth=1;" edge="1" parent="1" source="17" target="18">
                    <mxGeometry relative="1" as="geometry"/>
                </mxCell>
                <mxCell id="17" value="&lt;span style=&quot;font-size: 8px;&quot;&gt;Introduce yourself to Him&lt;/span&gt;" style="rounded=0;whiteSpace=wrap;html=1;fillColor=#dae8fc;strokeColor=#6c8ebf;fontSize=8;strokeWidth=1;" vertex="1" parent="1">
                    <mxGeometry x="622" y="422" width="120" height="20" as="geometry"/>
                </mxCell>
                <mxCell id="104" style="edgeStyle=none;html=1;fontSize=8;exitX=0.5;exitY=1;exitDx=0;exitDy=0;entryX=1;entryY=0.5;entryDx=0;entryDy=0;strokeWidth=1;" edge="1" parent="1" source="18" target="112">
                    <mxGeometry relative="1" as="geometry">
                        <mxPoint x="572" y="742" as="targetPoint"/>
                        <Array as="points">
                            <mxPoint x="832" y="782"/>
                        </Array>
                    </mxGeometry>
                </mxCell>
                <mxCell id="18" value="&lt;font style=&quot;font-size: 8px;&quot;&gt;If Karna talked to = next morning dialogue screen of him picking you up to go to the house together&lt;/font&gt;" style="rounded=0;whiteSpace=wrap;html=1;fillColor=#1ba1e2;fontColor=#ffffff;strokeColor=#006EAF;fontSize=8;strokeWidth=1;" vertex="1" parent="1">
                    <mxGeometry x="782" y="407" width="100" height="50" as="geometry"/>
                </mxCell>
                <mxCell id="115" value="" style="edgeStyle=none;html=1;fontSize=8;entryX=0.5;entryY=0;entryDx=0;entryDy=0;strokeWidth=1;" edge="1" parent="1" source="26" target="107">
                    <mxGeometry relative="1" as="geometry">
                        <mxPoint x="392" y="832" as="targetPoint"/>
                    </mxGeometry>
                </mxCell>
                <mxCell id="26" value="&lt;span style=&quot;font-size: 8px;&quot;&gt;Day 1 Morning&lt;/span&gt;" style="rounded=0;whiteSpace=wrap;html=1;fontSize=8;strokeWidth=1;" vertex="1" parent="1">
                    <mxGeometry x="352" y="692" width="120" height="20" as="geometry"/>
                </mxCell>
                <mxCell id="49" style="edgeStyle=none;html=1;entryX=0.5;entryY=0;entryDx=0;entryDy=0;fontSize=8;strokeWidth=1;" edge="1" parent="1" source="31" target="47">
                    <mxGeometry relative="1" as="geometry"/>
                </mxCell>
                <mxCell id="51" style="edgeStyle=none;html=1;exitX=0.5;exitY=1;exitDx=0;exitDy=0;entryX=0.5;entryY=0;entryDx=0;entryDy=0;fontSize=8;strokeWidth=1;" edge="1" parent="1" source="31" target="46">
                    <mxGeometry relative="1" as="geometry">
                        <Array as="points">
                            <mxPoint x="217" y="212"/>
                            <mxPoint x="162" y="212"/>
                            <mxPoint x="112" y="212"/>
                        </Array>
                    </mxGeometry>
                </mxCell>
                <mxCell id="31" value="&lt;span style=&quot;font-size: 8px;&quot;&gt;Elyes&lt;/span&gt;" style="rounded=0;whiteSpace=wrap;html=1;fontSize=8;strokeWidth=1;" vertex="1" parent="1">
                    <mxGeometry x="182" y="182" width="70" height="20" as="geometry"/>
                </mxCell>
                <mxCell id="32" value="&lt;span style=&quot;font-size: 8px;&quot;&gt;Artermis&lt;/span&gt;" style="rounded=0;whiteSpace=wrap;html=1;fontSize=8;strokeWidth=1;" vertex="1" parent="1">
                    <mxGeometry x="362" y="182" width="70" height="20" as="geometry"/>
                </mxCell>
                <mxCell id="33" value="&lt;span style=&quot;font-size: 8px;&quot;&gt;Noah&lt;/span&gt;" style="rounded=0;whiteSpace=wrap;html=1;fontSize=8;strokeWidth=1;" vertex="1" parent="1">
                    <mxGeometry x="272" y="182" width="70" height="20" as="geometry"/>
                </mxCell>
                <mxCell id="34" value="&lt;span style=&quot;font-size: 8px;&quot;&gt;Rowan&lt;/span&gt;" style="rounded=0;whiteSpace=wrap;html=1;fontSize=8;strokeWidth=1;" vertex="1" parent="1">
                    <mxGeometry x="452" y="182" width="70" height="20" as="geometry"/>
                </mxCell>
                <mxCell id="42" value="&lt;span style=&quot;font-size: 8px;&quot;&gt;Carriage&lt;/span&gt;" style="rounded=0;whiteSpace=wrap;html=1;fontSize=8;strokeWidth=1;" vertex="1" parent="1">
                    <mxGeometry x="272" y="142" width="70" height="20" as="geometry"/>
                </mxCell>
                <mxCell id="43" value="&lt;span style=&quot;font-size: 8px;&quot;&gt;Ship&lt;/span&gt;" style="rounded=0;whiteSpace=wrap;html=1;fontSize=8;strokeWidth=1;" vertex="1" parent="1">
                    <mxGeometry x="362" y="142" width="70" height="20" as="geometry"/>
                </mxCell>
                <mxCell id="44" value="&lt;font style=&quot;font-size: 8px;&quot;&gt;Introduction&lt;/font&gt;" style="rounded=0;whiteSpace=wrap;html=1;fontSize=8;strokeWidth=1;" vertex="1" parent="1">
                    <mxGeometry x="292" y="72" width="120" height="20" as="geometry"/>
                </mxCell>
                <mxCell id="80" style="edgeStyle=none;html=1;entryX=0;entryY=0.5;entryDx=0;entryDy=0;fontSize=8;exitX=0.75;exitY=1;exitDx=0;exitDy=0;strokeWidth=1;" edge="1" parent="1" source="46" target="54">
                    <mxGeometry relative="1" as="geometry">
                        <Array as="points">
                            <mxPoint x="132" y="332"/>
                        </Array>
                    </mxGeometry>
                </mxCell>
                <mxCell id="46" value="&lt;span style=&quot;font-size: 8px;&quot;&gt;Walk&lt;/span&gt;" style="rounded=0;whiteSpace=wrap;html=1;fontSize=8;strokeWidth=1;" vertex="1" parent="1">
                    <mxGeometry x="72" y="232" width="80" height="20" as="geometry"/>
                </mxCell>
                <mxCell id="78" style="edgeStyle=none;html=1;entryX=0.5;entryY=0;entryDx=0;entryDy=0;fontSize=8;strokeWidth=1;" edge="1" parent="1" source="47" target="54">
                    <mxGeometry relative="1" as="geometry">
                        <Array as="points">
                            <mxPoint x="352" y="242"/>
                        </Array>
                    </mxGeometry>
                </mxCell>
                <mxCell id="47" value="&lt;span style=&quot;font-size: 8px;&quot;&gt;Ride With Him&lt;/span&gt;" style="rounded=0;whiteSpace=wrap;html=1;fontSize=8;strokeWidth=1;" vertex="1" parent="1">
                    <mxGeometry x="172" y="232" width="90" height="20" as="geometry"/>
                </mxCell>
                <mxCell id="70" style="edgeStyle=none;html=1;entryX=0.5;entryY=0;entryDx=0;entryDy=0;fontSize=8;strokeWidth=1;" edge="1" parent="1" source="52" target="66">
                    <mxGeometry relative="1" as="geometry">
                        <Array as="points">
                            <mxPoint x="112" y="352"/>
                            <mxPoint x="212" y="352"/>
                        </Array>
                    </mxGeometry>
                </mxCell>
                <mxCell id="52" value="&lt;span style=&quot;font-size: 8px;&quot;&gt;State: No Karna&lt;/span&gt;" style="rounded=0;whiteSpace=wrap;html=1;fillColor=#f8cecc;strokeColor=#b85450;fontSize=8;strokeWidth=1;" vertex="1" parent="1">
                    <mxGeometry x="72" y="262" width="80" height="20" as="geometry"/>
                </mxCell>
                <mxCell id="77" style="edgeStyle=none;html=1;entryX=0.5;entryY=0;entryDx=0;entryDy=0;fontSize=8;strokeWidth=1;" edge="1" parent="1" source="53" target="14">
                    <mxGeometry relative="1" as="geometry">
                        <Array as="points">
                            <mxPoint x="522" y="272"/>
                        </Array>
                    </mxGeometry>
                </mxCell>
                <mxCell id="53" value="&lt;span style=&quot;font-size: 8px;&quot;&gt;State: Meet Karna&lt;/span&gt;" style="rounded=0;whiteSpace=wrap;html=1;fillColor=#dae8fc;strokeColor=#6c8ebf;fontSize=8;strokeWidth=1;" vertex="1" parent="1">
                    <mxGeometry x="172" y="262" width="90" height="20" as="geometry"/>
                </mxCell>
                <mxCell id="67" style="edgeStyle=none;html=1;entryX=0.5;entryY=0;entryDx=0;entryDy=0;fontSize=8;strokeWidth=1;" edge="1" parent="1" source="54" target="60">
                    <mxGeometry relative="1" as="geometry"/>
                </mxCell>
                <mxCell id="68" style="edgeStyle=none;html=1;entryX=0.5;entryY=0;entryDx=0;entryDy=0;fontSize=8;strokeWidth=1;" edge="1" parent="1" source="54" target="61">
                    <mxGeometry relative="1" as="geometry"/>
                </mxCell>
                <mxCell id="54" value="&lt;span style=&quot;font-size: 8px;&quot;&gt;Arrival Inn&lt;/span&gt;" style="rounded=0;whiteSpace=wrap;html=1;fontSize=8;strokeWidth=1;" vertex="1" parent="1">
                    <mxGeometry x="307" y="322" width="90" height="20" as="geometry"/>
                </mxCell>
                <mxCell id="75" value="" style="edgeStyle=none;html=1;fontSize=8;strokeWidth=1;" edge="1" parent="1" source="60" target="5">
                    <mxGeometry relative="1" as="geometry"/>
                </mxCell>
                <mxCell id="60" value="&lt;span style=&quot;font-size: 8px;&quot;&gt;Evening&lt;/span&gt;" style="rounded=0;whiteSpace=wrap;html=1;fontSize=8;strokeWidth=1;" vertex="1" parent="1">
                    <mxGeometry x="362" y="362" width="60" height="30" as="geometry"/>
                </mxCell>
                <mxCell id="76" style="edgeStyle=none;html=1;entryX=1;entryY=0.5;entryDx=0;entryDy=0;fontSize=8;strokeWidth=1;" edge="1" parent="1" source="61" target="66">
                    <mxGeometry relative="1" as="geometry">
                        <Array as="points">
                            <mxPoint x="312" y="432"/>
                        </Array>
                    </mxGeometry>
                </mxCell>
                <mxCell id="61" value="&lt;span style=&quot;font-size: 8px;&quot;&gt;Late Night&lt;br style=&quot;font-size: 8px;&quot;&gt;&lt;/span&gt;" style="rounded=0;whiteSpace=wrap;html=1;fontSize=8;strokeWidth=1;" vertex="1" parent="1">
                    <mxGeometry x="282" y="362" width="60" height="30" as="geometry"/>
                </mxCell>
                <mxCell id="126" style="edgeStyle=none;html=1;entryX=0.5;entryY=0;entryDx=0;entryDy=0;strokeWidth=1;fontSize=8;" edge="1" parent="1" source="65" target="121">
                    <mxGeometry relative="1" as="geometry">
                        <Array as="points">
                            <mxPoint x="412" y="873"/>
                            <mxPoint x="267" y="873"/>
                        </Array>
                    </mxGeometry>
                </mxCell>
                <mxCell id="65" value="Go Uncle's House" style="rounded=0;whiteSpace=wrap;html=1;fontSize=8;strokeWidth=1;" vertex="1" parent="1">
                    <mxGeometry x="352" y="827" width="120" height="30" as="geometry"/>
                </mxCell>
                <mxCell id="91" value="" style="edgeStyle=none;html=1;fontSize=8;strokeWidth=1;" edge="1" parent="1" source="66" target="89">
                    <mxGeometry relative="1" as="geometry"/>
                </mxCell>
                <mxCell id="66" value="&lt;span style=&quot;font-size: 8px;&quot;&gt;Theodore wait patiently If you late&lt;/span&gt;" style="rounded=0;whiteSpace=wrap;html=1;fontSize=8;strokeWidth=1;" vertex="1" parent="1">
                    <mxGeometry x="152" y="412" width="120" height="40" as="geometry"/>
                </mxCell>
                <mxCell id="95" style="edgeStyle=none;html=1;entryX=1;entryY=0.5;entryDx=0;entryDy=0;fontSize=8;strokeWidth=1;" edge="1" parent="1" source="85" target="11">
                    <mxGeometry relative="1" as="geometry">
                        <Array as="points">
                            <mxPoint x="682" y="542"/>
                        </Array>
                    </mxGeometry>
                </mxCell>
                <mxCell id="85" value="&lt;font style=&quot;font-size: 8px;&quot;&gt;Talk and Get the Key&lt;/font&gt;" style="rounded=0;whiteSpace=wrap;html=1;fontSize=8;strokeWidth=1;" vertex="1" parent="1">
                    <mxGeometry x="622" y="452" width="120" height="20" as="geometry"/>
                </mxCell>
                <mxCell id="93" style="edgeStyle=none;html=1;entryX=0.5;entryY=0;entryDx=0;entryDy=0;fontSize=8;strokeWidth=1;" edge="1" parent="1" source="89" target="11">
                    <mxGeometry relative="1" as="geometry">
                        <Array as="points">
                            <mxPoint x="352" y="487"/>
                        </Array>
                    </mxGeometry>
                </mxCell>
                <mxCell id="89" value="&lt;span style=&quot;font-size: 8px;&quot;&gt;Bar Table to Find your keys to your room&lt;/span&gt;" style="rounded=0;whiteSpace=wrap;html=1;fontSize=8;strokeWidth=1;" vertex="1" parent="1">
                    <mxGeometry x="152" y="472" width="120" height="30" as="geometry"/>
                </mxCell>
                <mxCell id="100" style="edgeStyle=none;html=1;entryX=0;entryY=0.5;entryDx=0;entryDy=0;fontSize=8;strokeWidth=1;" edge="1" parent="1" source="96" target="97">
                    <mxGeometry relative="1" as="geometry"/>
                </mxCell>
                <mxCell id="96" value="&lt;span style=&quot;font-size: 8px;&quot;&gt;Look Around Room&lt;/span&gt;" style="rounded=0;whiteSpace=wrap;html=1;fontSize=8;strokeWidth=1;" vertex="1" parent="1">
                    <mxGeometry x="242" y="582" width="100" height="20" as="geometry"/>
                </mxCell>
                <mxCell id="101" style="edgeStyle=none;html=1;fontSize=8;entryX=0.5;entryY=0;entryDx=0;entryDy=0;strokeWidth=1;" edge="1" parent="1" source="97" target="26">
                    <mxGeometry relative="1" as="geometry">
                        <mxPoint x="402" y="632" as="targetPoint"/>
                    </mxGeometry>
                </mxCell>
                <mxCell id="97" value="&lt;span style=&quot;font-size: 8px;&quot;&gt;Sleep&lt;/span&gt;" style="rounded=0;whiteSpace=wrap;html=1;fontSize=8;strokeWidth=1;" vertex="1" parent="1">
                    <mxGeometry x="362" y="582" width="100" height="20" as="geometry"/>
                </mxCell>
                <mxCell id="13" value="&lt;font style=&quot;font-size: 8px;&quot;&gt;Chapter 1&lt;/font&gt;" style="rounded=0;whiteSpace=wrap;html=1;fontSize=8;strokeWidth=1;" vertex="1" parent="1">
                    <mxGeometry x="352" y="622" width="120" height="50" as="geometry"/>
                </mxCell>
                <mxCell id="116" style="edgeStyle=none;html=1;entryX=0.5;entryY=0;entryDx=0;entryDy=0;fontSize=8;strokeWidth=1;" edge="1" parent="1" source="107" target="112">
                    <mxGeometry relative="1" as="geometry"/>
                </mxCell>
                <mxCell id="117" style="edgeStyle=none;html=1;entryX=0.5;entryY=0;entryDx=0;entryDy=0;fontSize=8;strokeWidth=1;" edge="1" parent="1" source="107" target="113">
                    <mxGeometry relative="1" as="geometry"/>
                </mxCell>
                <mxCell id="107" value="&lt;span style=&quot;font-size: 8px;&quot;&gt;Get Dressed and Leave&lt;/span&gt;" style="rounded=0;whiteSpace=wrap;html=1;fontSize=8;strokeWidth=1;" vertex="1" parent="1">
                    <mxGeometry x="357" y="732" width="110" height="20" as="geometry"/>
                </mxCell>
                <mxCell id="118" style="edgeStyle=none;html=1;entryX=0.5;entryY=0;entryDx=0;entryDy=0;fontSize=8;strokeWidth=1;" edge="1" parent="1" source="112" target="65">
                    <mxGeometry relative="1" as="geometry">
                        <Array as="points">
                            <mxPoint x="477" y="810"/>
                            <mxPoint x="412" y="810"/>
                        </Array>
                    </mxGeometry>
                </mxCell>
                <mxCell id="112" value="&lt;span style=&quot;font-size: 8px;&quot;&gt;Meet Karna Outside&lt;/span&gt;" style="rounded=0;whiteSpace=wrap;html=1;fillColor=#dae8fc;strokeColor=#6c8ebf;fontSize=8;strokeWidth=1;" vertex="1" parent="1">
                    <mxGeometry x="422" y="772" width="110" height="20" as="geometry"/>
                </mxCell>
                <mxCell id="119" style="edgeStyle=none;html=1;entryX=0.5;entryY=0;entryDx=0;entryDy=0;fontSize=8;strokeWidth=1;" edge="1" parent="1" source="113" target="65">
                    <mxGeometry relative="1" as="geometry">
                        <Array as="points">
                            <mxPoint x="347" y="810"/>
                            <mxPoint x="412" y="810"/>
                        </Array>
                    </mxGeometry>
                </mxCell>
                <mxCell id="113" value="&lt;span style=&quot;font-size: 8px;&quot;&gt;Go on Your Own&lt;/span&gt;" style="rounded=0;whiteSpace=wrap;html=1;fontSize=8;strokeWidth=1;" vertex="1" parent="1">
                    <mxGeometry x="292" y="772" width="110" height="20" as="geometry"/>
                </mxCell>
                <mxCell id="121" value="Ms. Smith (Assistant)" style="rounded=0;whiteSpace=wrap;html=1;fontSize=8;strokeWidth=1;" vertex="1" parent="1">
                    <mxGeometry x="207" y="891" width="120" height="30" as="geometry"/>
                </mxCell>
                <mxCell id="123" value="Mrs. Bennet (Headmaid)" style="rounded=0;whiteSpace=wrap;html=1;fontSize=8;strokeWidth=1;" vertex="1" parent="1">
                    <mxGeometry x="207" y="927" width="120" height="30" as="geometry"/>
                </mxCell>
                <mxCell id="124" value="Mr. Evergreen (Partner)" style="rounded=0;whiteSpace=wrap;html=1;fontSize=8;strokeWidth=1;" vertex="1" parent="1">
                    <mxGeometry x="207" y="963" width="120" height="30" as="geometry"/>
                </mxCell>
                <mxCell id="125" value="Mr. Craig (Digger)" style="rounded=0;whiteSpace=wrap;html=1;fontSize=8;strokeWidth=1;" vertex="1" parent="1">
                    <mxGeometry x="207" y="999" width="120" height="30" as="geometry"/>
                </mxCell>
                <mxCell id="128" value="&lt;font style=&quot;font-size: 6px;&quot;&gt;She seemed frustrated that she couldn't find your uncle journal everywhere. It was necessary for them to continue or all going to be in vain.&lt;/font&gt;" style="rounded=0;whiteSpace=wrap;html=1;fontSize=8;strokeWidth=1;" vertex="1" parent="1">
                    <mxGeometry x="332" y="891" width="217" height="30" as="geometry"/>
                </mxCell>
                <mxCell id="129" value="She seemed grumpy and uncomfortable.&amp;nbsp;&amp;nbsp;" style="rounded=0;whiteSpace=wrap;html=1;fontSize=8;strokeWidth=1;" vertex="1" parent="1">
                    <mxGeometry x="332" y="927" width="217" height="30" as="geometry"/>
                </mxCell>
                <mxCell id="130" value="" style="rounded=0;whiteSpace=wrap;html=1;fontSize=8;strokeWidth=1;" vertex="1" parent="1">
                    <mxGeometry x="332" y="963" width="217" height="30" as="geometry"/>
                </mxCell>
            </root>
        </mxGraphModel>
    </diagram>
</mxfile>